<?xml version="1.0" standalone="no"?>
<!DOCTYPE svg PUBLIC "-//W3C//DTD SVG 20010904//EN"
 "http://www.w3.org/TR/2001/REC-SVG-20010904/DTD/svg10.dtd">
<svg version="1.0" xmlns="http://www.w3.org/2000/svg"
 width="1080.000000pt" height="1080.000000pt" viewBox="0 0 1080.000000 1080.000000"
 preserveAspectRatio="xMidYMid meet">

<g transform="translate(0.000000,1080.000000) scale(0.100000,-0.100000)"
fill="#FFFFFF" stroke="none">
<path d="M5149 9025 c-3 -3 -70 -10 -149 -16 -78 -6 -195 -19 -259 -28 l-116
-16 -3 -50 c-2 -27 -1 -160 3 -294 l7 -243 42 6 c573 85 1017 85 1366 0 119
-30 294 -85 410 -131 110 -44 346 -155 363 -173 9 -8 -32 -34 -253 -157 -69
-39 -287 -162 -485 -273 -198 -112 -468 -263 -600 -338 -132 -74 -274 -154
-315 -177 -41 -23 -201 -113 -355 -200 -154 -87 -326 -184 -383 -216 -57 -33
-106 -59 -109 -59 -3 0 -2 506 2 1125 4 619 5 1125 2 1125 -15 0 -267 -94
-369 -138 -695 -300 -1147 -665 -1525 -1232 -133 -199 -328 -556 -408 -745
-52 -122 -85 -208 -85 -218 1 -12 498 -292 505 -285 2 2 18 39 35 83 171 430
370 790 565 1025 77 92 284 295 385 376 87 71 230 174 314 228 l59 38 -6 -699
c-4 -384 -10 -1037 -14 -1451 -3 -414 -9 -754 -12 -756 -3 -2 -150 82 -326
188 -176 105 -493 294 -705 420 -212 126 -490 292 -619 369 -172 103 -236 136
-241 126 -12 -18 -46 -208 -72 -399 -19 -143 -22 -211 -22 -505 -1 -306 1
-355 22 -490 69 -448 226 -850 520 -1330 130 -212 345 -512 364 -507 9 2 405
235 476 279 l22 14 -60 77 c-229 291 -427 609 -547 878 -99 220 -178 553 -203
854 -6 69 -13 151 -16 183 -3 37 -1 57 6 57 19 0 2500 -1494 2493 -1501 -5 -4
-226 -132 -493 -285 -267 -152 -577 -330 -690 -395 -582 -333 -745 -428 -748
-437 -4 -13 119 -119 263 -226 517 -387 994 -604 1505 -685 382 -61 846 -63
1285 -5 66 8 130 17 143 20 l24 5 -7 287 c-4 158 -9 290 -11 293 -2 4 -25 2
-51 -3 -103 -19 -345 -48 -488 -58 -425 -28 -726 1 -1057 104 -225 70 -589
225 -588 251 1 5 81 55 178 110 97 54 395 224 662 376 267 152 712 406 990
564 278 158 543 309 590 336 47 27 89 49 94 49 4 0 5 -44 2 -97 -3 -54 -8
-541 -12 -1083 -3 -542 -8 -988 -10 -992 -12 -20 24 -13 122 22 195 69 314
120 509 217 536 267 901 573 1224 1027 188 264 379 616 525 964 l34 83 -21 13
c-88 55 -480 267 -488 264 -6 -2 -29 -49 -50 -103 -22 -55 -46 -114 -54 -131
-8 -16 -27 -59 -43 -95 -136 -302 -303 -581 -462 -772 -99 -119 -277 -288
-414 -396 -115 -90 -337 -243 -343 -237 -5 5 27 2857 32 2873 2 7 59 -20 147
-71 144 -84 442 -256 1038 -601 179 -103 417 -241 529 -306 112 -66 210 -119
216 -119 13 0 21 41 61 320 26 173 27 208 28 540 0 391 -10 498 -75 770 -84
355 -267 752 -533 1160 -104 159 -314 442 -325 438 -4 -2 -118 -70 -253 -152
l-246 -149 77 -96 c282 -349 500 -710 606 -1004 72 -202 134 -487 155 -722 5
-66 12 -141 15 -167 2 -27 0 -48 -6 -48 -9 0 -231 128 -725 416 -144 84 -344
201 -445 260 -489 283 -1239 720 -1282 747 -26 16 -46 34 -44 40 2 6 37 29 78
52 41 23 362 205 714 405 728 413 790 448 972 551 73 41 133 77 133 81 0 25
-312 271 -515 405 -512 339 -937 494 -1525 555 -121 12 -642 23 -651 13z m269
-2384 c15 -10 173 -103 352 -206 581 -336 685 -396 694 -405 9 -9 8 -731 -3
-1064 l-6 -199 -195 -112 c-107 -61 -345 -198 -529 -304 -184 -105 -340 -190
-346 -187 -6 2 -184 107 -395 233 -212 126 -451 268 -531 316 -80 47 -151 92
-156 99 -8 9 -9 195 -5 622 l7 608 180 102 c99 57 306 174 460 261 154 87 316
180 360 206 44 26 81 48 83 48 2 1 15 -8 30 -18z"/>
</g>
</svg>
